<?xml version="1.0" encoding="iso-8859-1"?>
<!-- Generator: Adobe Illustrator 19.0.0, SVG Export Plug-In . SVG Version: 6.00 Build 0)  -->
<svg version="1.1" id="Capa_1" xmlns="http://www.w3.org/2000/svg" xmlns:xlink="http://www.w3.org/1999/xlink" x="0px" y="0px"
	 viewBox="0 0 512 512" style="enable-background:new 0 0 512 512;" xml:space="preserve">
<g>
	<g>
		<path d="M316,120c-8.413,0-6.595,0-15,0v-15c0-8.271,6.729-15,15-15c24.813,0,45-20.187,45-45S340.813,0,316,0
			c-57.897,0-105,47.103-105,105v15c-8.414,0-6.58,0-15,0C88.192,120,0,208.215,0,316c0,107.808,88.214,196,196,196h120
			c107.808,0,196-88.215,196-196C512,208.191,423.786,120,316,120z M203.083,150H226c8.284,0,15-6.716,15-15v-30
			c0-41.355,33.645-75,75-75c8.271,0,15,6.729,15,15s-6.729,15-15,15c-24.813,0-45,20.187-45,45v30c0,8.284,6.716,15,15,15h22.917
			c26.665,0,51.314,11.077,68.721,30h-39.96c-5.369,0-10.328,2.869-13.003,7.523c-2.676,4.654-2.661,10.383,0.04,15.023
			c4.17,7.165,6.285,14.72,6.285,22.454v15h-15c-24.813,0-45-20.187-45-45c0-8.284-6.716-15-15-15s-15,6.716-15,15
			c0,24.813-20.187,45-45,45h-15v-15c0-7.734,2.115-15.288,6.286-22.454c2.701-4.64,2.716-10.369,0.04-15.023
			c-2.676-4.654-7.635-7.523-13.003-7.523h-39.961C151.769,161.077,176.418,150,203.083,150z M316,482H196
			c-91.533,0-166-74.467-166-166c0-53.287,25.244-100.783,64.394-131.177c-1.723,3.189-6.071,10.105-1.153,18.063
			c2.733,4.422,7.561,7.014,12.76,7.014h46.564C151.523,214.815,151,219.922,151,225v30c0,8.284,6.716,15,15,15h30
			c24.507,0,46.305-11.814,60-30.047C269.695,258.186,291.493,270,316,270h30c8.284,0,15-6.716,15-15v-30
			c0-5.078-0.523-10.085-1.564-15H406c5.199,0,10.027-2.692,12.76-7.114c2.733-4.422,2.981-9.944,0.657-14.594
			c-0.584-1.168-1.191-2.322-1.81-3.469C456.756,215.217,482,262.713,482,316C482,407.533,407.533,482,316,482z"/>
	</g>
</g>
<g>
</g>
<g>
</g>
<g>
</g>
<g>
</g>
<g>
</g>
<g>
</g>
<g>
</g>
<g>
</g>
<g>
</g>
<g>
</g>
<g>
</g>
<g>
</g>
<g>
</g>
<g>
</g>
<g>
</g>
</svg>
