<svg width="115" height="115" viewBox="0 0 115 115" fill="none" xmlns="http://www.w3.org/2000/svg">
<g clip-path="url(#clip0)">
<path d="M70.9882 27.3319C69.1143 27.3319 69.5192 27.3319 67.6471 27.3319V23.9908C67.6471 22.1486 69.1459 20.6498 70.9882 20.6498C76.5149 20.6498 81.0113 16.1534 81.0113 10.6266C81.0113 5.09989 76.5149 0.603516 70.9882 0.603516C58.0924 0.603516 47.6009 11.0951 47.6009 23.9908V27.3319C45.7268 27.3319 46.1353 27.3319 44.2598 27.3319C20.2471 27.3319 0.603516 46.9806 0.603516 70.9882C0.603516 95.0009 20.252 114.645 44.2598 114.645H70.9882C95.0009 114.645 114.645 94.9958 114.645 70.9882C114.645 46.9752 94.996 27.3319 70.9882 27.3319ZM45.8375 34.014H50.9419C52.7871 34.014 54.283 32.5181 54.283 30.6729V23.9908C54.283 14.7796 61.7769 7.2856 70.9882 7.2856C72.8304 7.2856 74.3292 8.7844 74.3292 10.6266C74.3292 12.4689 72.8304 13.9677 70.9882 13.9677C65.4614 13.9677 60.9651 18.4641 60.9651 23.9908V30.6729C60.9651 32.5181 62.4609 34.014 64.3061 34.014L69.4105 34.014C75.3498 34.014 80.84 36.4812 84.7172 40.6961H75.8167C74.6208 40.6961 73.5162 41.3351 72.9204 42.3717C72.3244 43.4083 72.3277 44.6844 72.9293 45.7179C73.8581 47.3138 74.3292 48.9965 74.3292 50.7192V54.0602H70.9882C65.4614 54.0602 60.9651 49.5639 60.9651 44.0371C60.9651 42.1919 59.4692 40.6961 57.624 40.6961C55.7789 40.6961 54.283 42.1919 54.283 44.0371C54.283 49.5639 49.7866 54.0602 44.2598 54.0602H40.9188V50.7192C40.9188 48.9965 41.3899 47.314 42.3189 45.7179C42.9205 44.6844 42.9239 43.4083 42.3278 42.3717C41.7318 41.3351 40.6272 40.6961 39.4316 40.6961H30.5308C34.408 36.4812 39.8982 34.014 45.8375 34.014ZM70.9882 107.962H44.2598C23.8721 107.962 7.2856 91.3759 7.2856 70.9882C7.2856 59.1192 12.9084 48.5402 21.6285 41.7703C21.2447 42.4806 20.2763 44.0211 21.3717 45.7936C21.9804 46.7785 23.0558 47.3559 24.2138 47.3559H34.5853C34.3532 48.4506 34.2367 49.5881 34.2367 50.7192V57.4013C34.2367 59.2464 35.7326 60.7423 37.5777 60.7423H44.2598C49.7184 60.7423 54.5736 58.1109 57.624 54.0498C60.6744 58.1109 65.5296 60.7423 70.9882 60.7423H77.6703C79.5154 60.7423 81.0113 59.2464 81.0113 57.4013V50.7192C81.0113 49.5881 80.8948 48.4729 80.663 47.3781H91.0345C92.1925 47.3781 93.2678 46.7785 93.8766 45.7936C94.4853 44.8087 94.5405 43.5787 94.0229 42.543C93.8928 42.2828 93.7576 42.0258 93.6198 41.7703C102.34 48.5402 107.962 59.1192 107.962 70.9882C107.962 91.3759 91.3759 107.962 70.9882 107.962Z" fill="#FF3464"/>
</g>
<defs>
<clipPath id="clip0">
<rect width="114.041" height="114.041" fill="white" transform="translate(0.603516 0.603516)"/>
</clipPath>
</defs>
</svg>
